<svg width="121" height="118" viewBox="0 0 121 118" fill="none" xmlns="http://www.w3.org/2000/svg">
<path d="M9.24853 95.2293C6.79442 95.2293 4.76624 95.7769 3.18425 96.8922C1.60227 98.0076 0.811274 99.4677 0.811274 101.272C0.811274 102.023 1.17635 102.408 1.92678 102.408H4.62426C5.23272 102.408 5.61807 102.084 5.78033 101.414C6.1454 100.096 7.2609 99.4474 9.14712 99.4474C10.3032 99.4474 11.2159 99.7516 11.8852 100.34C12.5545 100.928 12.879 101.719 12.879 102.712V104.578H6.89583C4.8068 104.578 3.14369 105.146 1.88621 106.302C0.628738 107.458 0 108.979 0 110.864C0 112.73 0.628738 114.231 1.88621 115.346C3.14369 116.462 4.8068 117.029 6.89583 117.029C8.29528 117.029 9.51219 116.725 10.5263 116.137C11.5404 115.549 12.2705 114.738 12.7167 113.704H13.0615V115.407C13.0615 116.157 13.4266 116.522 14.177 116.522H16.7122C17.4627 116.522 17.8278 116.157 17.8278 115.407V102.286C17.8278 100.157 17.057 98.4537 15.5156 97.1761C13.9742 95.8985 11.8852 95.2699 9.24853 95.2699V95.2293ZM8.64007 113.014C7.52457 113.014 6.65245 112.791 6.00343 112.345C5.35441 111.899 5.0299 111.311 5.0299 110.56C5.0299 109.871 5.27328 109.323 5.78033 108.897C6.28738 108.472 6.9364 108.269 7.72739 108.269H12.879V110.195C12.879 111.047 12.4733 111.736 11.6823 112.243C10.8914 112.75 9.87726 113.014 8.64007 113.014Z" fill="black"/>
<path d="M34.1952 95.2293C32.816 95.2293 31.5991 95.5741 30.5648 96.2433C29.5304 96.9125 28.8002 97.7845 28.3743 98.839H28.0498V96.8719C28.0498 96.1216 27.6847 95.7566 26.9343 95.7566H24.1963C23.4458 95.7566 23.0605 96.1216 23.0605 96.8719V115.407C23.0808 116.157 23.4661 116.522 24.2165 116.522H26.9546C27.705 116.522 28.0701 116.157 28.0701 115.407V103.361C28.0701 102.388 28.4352 101.577 29.1653 100.907C29.8955 100.238 30.8487 99.9138 32.0048 99.9138C33.1 99.9138 33.9721 100.238 34.6414 100.867C35.3107 101.496 35.6352 102.347 35.6352 103.402V115.407C35.6352 116.157 36.0003 116.522 36.7507 116.522H39.4888C40.2392 116.522 40.6246 116.157 40.6246 115.407V101.536C40.6246 99.6502 40.0161 98.1292 38.8195 96.9733C37.6228 95.8174 36.0611 95.2496 34.1546 95.2496L34.1952 95.2293Z" fill="black"/>
<path d="M55.552 116.502C56.2213 116.502 56.6269 116.178 56.7892 115.549L62.9752 96.9733C63.0969 96.6286 63.0766 96.3447 62.9143 96.1013C62.7521 95.858 62.4884 95.7363 62.1436 95.7363H59.0811C58.3509 95.7363 57.9453 96.0608 57.8641 96.73L53.8078 110.905H53.463L49.366 96.73C49.2646 96.0608 48.859 95.7363 48.1491 95.7363H44.904C44.5795 95.7363 44.3159 95.858 44.1333 96.0811C43.9508 96.3041 43.9102 96.6083 44.0116 96.9733L50.2179 115.549C50.3801 116.178 50.7858 116.502 51.4551 116.502H55.552Z" fill="black"/>
<path d="M82.1821 107.904C82.9325 107.904 83.2976 107.539 83.2976 106.788V103.422C83.2976 100.968 82.4863 98.981 80.8638 97.4803C79.2412 95.9797 77.0913 95.2293 74.4344 95.2293C71.7369 95.2293 69.5668 95.9797 67.9239 97.4803C66.2811 98.981 65.4698 100.968 65.4698 103.422V108.816C65.4698 111.27 66.3014 113.257 67.9442 114.758C69.5871 116.259 71.7775 117.009 74.5155 117.009C76.9291 117.009 78.9167 116.482 80.4784 115.448C82.0401 114.413 82.9528 112.974 83.2165 111.148C83.2367 110.804 83.1556 110.56 82.9731 110.398C82.7905 110.236 82.5066 110.155 82.1415 110.155H79.2615C78.7544 110.155 78.3691 110.439 78.1054 111.027C77.5984 112.223 76.4018 112.811 74.5155 112.811C73.2784 112.811 72.2845 112.487 71.5544 111.818C70.8242 111.148 70.4592 110.256 70.4592 109.141V107.883L82.1821 107.904ZM74.4141 99.4068C75.5702 99.4068 76.5032 99.7313 77.213 100.38C77.9229 101.029 78.2677 101.901 78.2677 103.016V104.071H70.4592V103.016C70.4592 101.921 70.8242 101.049 71.5544 100.4C72.2845 99.7516 73.2378 99.4271 74.4344 99.4271L74.4141 99.4068Z" fill="black"/>
<path d="M98.5901 95.2699C95.8926 95.3713 94.1687 96.73 93.3979 99.346H93.0734V96.8517C93.0734 96.1013 92.7084 95.7363 91.9579 95.7363H89.2199C88.4695 95.7363 88.0841 96.1013 88.0841 96.8517V115.387C88.1044 116.137 88.4897 116.502 89.2402 116.502H91.9782C92.7287 116.502 93.0937 116.137 93.0937 115.387V105.409C93.0937 103.848 93.5602 102.631 94.4932 101.739C95.4261 100.847 96.8053 100.4 98.6307 100.4C99.3811 100.4 99.7665 100.035 99.7665 99.2851V96.4258C99.7462 95.5944 99.3608 95.2091 98.5901 95.2902V95.2699Z" fill="black"/>
<path d="M119.054 107.904C119.805 107.904 120.17 107.539 120.17 106.788V103.422C120.17 100.968 119.359 98.981 117.736 97.4803C116.114 95.9797 113.964 95.2293 111.307 95.2293C108.609 95.2293 106.439 95.9797 104.796 97.4803C103.154 98.981 102.342 100.968 102.342 103.422V108.816C102.342 111.27 103.174 113.257 104.817 114.758C106.459 116.259 108.65 117.009 111.388 117.009C113.801 117.009 115.789 116.482 117.351 115.448C118.913 114.413 119.825 112.974 120.089 111.148C120.109 110.804 120.028 110.56 119.845 110.398C119.663 110.236 119.379 110.155 119.014 110.155H116.134C115.627 110.155 115.242 110.439 114.978 111.027C114.471 112.223 113.274 112.811 111.388 112.811C110.151 112.811 109.157 112.487 108.427 111.818C107.697 111.148 107.332 110.256 107.332 109.141V107.883L119.054 107.904ZM111.287 99.4068C112.443 99.4068 113.376 99.7313 114.085 100.38C114.795 101.029 115.14 101.901 115.14 103.016V104.071H107.332V103.016C107.332 101.921 107.697 101.049 108.427 100.4C109.157 99.7516 110.11 99.4271 111.307 99.4271L111.287 99.4068Z" fill="black"/>
<path d="M94.4256 39.4331C88.1389 23.2134 77.6703 0.620658 58.5841 0C39.498 0.620639 29.0294 23.2135 22.7426 39.4332C22.3584 40.4244 21.9341 41.4626 21.4955 42.5357C19.3659 47.7461 16.8994 53.7809 17.0508 59.2749C17.0464 59.4121 17.0442 59.5498 17.0442 59.6881C17.0442 66.4878 22.4012 72 29.0095 72C29.0654 72 29.1213 71.9996 29.177 71.9988C32.2765 71.9677 35.3919 70.699 37.7599 68.1899C40.2834 65.5161 41.7365 61.4851 43.0577 57.8202C43.3781 56.9314 43.6908 56.064 44.0091 55.2429C46.8769 47.8439 49.815 40.5189 53.2696 33.3883L53.2721 33.3831C54.8998 30.0234 56.5057 26.0507 58.5841 23.1429C60.6626 26.0507 62.2684 30.0232 63.8961 33.3829L63.8987 33.3882C67.3533 40.5188 70.2914 47.8438 73.1592 55.2428C73.4775 56.064 73.7901 56.9313 74.1106 57.8201C75.4318 61.4851 76.8849 65.516 79.4083 68.1898C81.7708 70.6931 84.8772 71.9617 87.9695 71.9985C88.0325 71.9995 88.0956 72 88.1588 72C94.7671 72 100.124 66.4878 100.124 59.6881C100.124 59.5494 100.122 59.4113 100.117 59.2738C100.269 53.7801 97.8022 47.7457 95.6728 42.5357C95.2342 41.4625 94.8099 40.4244 94.4256 39.4331Z" fill="url(#paint0_linear_327_54)"/>
<path opacity="0.8" d="M29.1934 24.758C26.6403 29.7315 24.5236 34.838 22.7426 39.433C22.3584 40.4242 21.9341 41.4624 21.4955 42.5355C19.3659 47.7459 16.8994 53.7807 17.0508 59.2747C17.0464 59.4118 17.0442 59.5496 17.0442 59.6879C17.0442 66.4876 22.4012 71.9998 29.0095 71.9998C29.0654 71.9998 29.1213 71.9994 29.177 71.9986C32.2765 71.9675 35.3919 70.6988 37.7599 68.1897C40.2834 65.5159 41.7365 61.4849 43.0577 57.82C43.3781 56.9312 43.6908 56.0638 44.0091 55.2426C46.8769 47.8437 49.815 40.5187 53.2696 33.3881L53.2721 33.3829C53.6066 32.6925 53.9402 31.9832 54.2771 31.2668C55.5798 28.4971 56.9328 25.4529 58.5841 23.1427C51.0314 11.5712 35.926 14.2449 30.8908 22.015C30.3569 22.8389 29.7888 23.7578 29.1934 24.758Z" fill="white"/>
<g filter="url(#filter0_b_327_54)">
<ellipse rx="11.8686" ry="12" transform="matrix(1 -9.23255e-08 -8.27804e-08 -1 28.9127 60)" fill="#264BFF"/>
</g>
<defs>
<filter id="filter0_b_327_54" x="2.04416" y="33" width="53.7372" height="54" filterUnits="userSpaceOnUse" color-interpolation-filters="sRGB">
<feFlood flood-opacity="0" result="BackgroundImageFix"/>
<feGaussianBlur in="BackgroundImage" stdDeviation="7.5"/>
<feComposite in2="SourceAlpha" operator="in" result="effect1_backgroundBlur_327_54"/>
<feBlend mode="normal" in="SourceGraphic" in2="effect1_backgroundBlur_327_54" result="shape"/>
</filter>
<linearGradient id="paint0_linear_327_54" x1="58.5841" y1="0" x2="58.5841" y2="72" gradientUnits="userSpaceOnUse">
<stop stop-color="#1E42FF"/>
<stop offset="0.713542" stop-color="#587CFF"/>
</linearGradient>
</defs>
</svg>
